<svg width="20" height="21" viewBox="0 0 20 21" fill="none" xmlns="http://www.w3.org/2000/svg">
<path d="M18.3327 7.60002V3.81669C18.3327 2.64169 17.7993 2.16669 16.4743 2.16669H13.1077C11.7827 2.16669 11.2493 2.64169 11.2493 3.81669V7.59169C11.2493 8.77502 11.7827 9.24169 13.1077 9.24169H16.4743C17.7993 9.25002 18.3327 8.77502 18.3327 7.60002ZM18.3327 16.975V13.6084C18.3327 12.2834 17.7993 11.75 16.4743 11.75H13.1077C11.7827 11.75 11.2493 12.2834 11.2493 13.6084V16.975C11.2493 18.3 11.7827 18.8334 13.1077 18.8334H16.4743C17.7993 18.8334 18.3327 18.3 18.3327 16.975ZM8.74935 7.60002V3.81669C8.74935 2.64169 8.21602 2.16669 6.89102 2.16669H3.52435C2.19935 2.16669 1.66602 2.64169 1.66602 3.81669V7.59169C1.66602 8.77502 2.19935 9.24169 3.52435 9.24169H6.89102C8.21602 9.25002 8.74935 8.77502 8.74935 7.60002ZM8.74935 16.975V13.6084C8.74935 12.2834 8.21602 11.75 6.89102 11.75H3.52435C2.19935 11.75 1.66602 12.2834 1.66602 13.6084V16.975C1.66602 18.3 2.19935 18.8334 3.52435 18.8334H6.89102C8.21602 18.8334 8.74935 18.3 8.74935 16.975Z" fill="#71717a"/>
</svg>
