<svg width="16" height="16" viewBox="0 0 16 16" fill="none" xmlns="http://www.w3.org/2000/svg">
<path fill-rule="evenodd" clip-rule="evenodd" d="M7.78003 2.09974C8.09262 2.06903 8.40817 2.1041 8.70638 2.20271C9.0046 2.30131 9.27886 2.46126 9.51153 2.67226C9.74419 2.88326 9.9301 3.14064 10.0573 3.42783C10.1845 3.71501 10.2501 4.02565 10.25 4.33974V4.34V4.58333H5.75003V4.46667C5.75003 3.30911 6.70494 2.20009 7.77639 2.10009L7.77639 2.1001L7.78003 2.09974ZM13.9423 5.71723C13.4515 5.13374 12.7159 4.79128 11.75 4.65384V4.34026V4.34C11.7502 3.8166 11.6408 3.29897 11.4288 2.8204C11.2168 2.34176 10.907 1.9128 10.5192 1.56113C10.1314 1.20947 9.67431 0.942884 9.17729 0.778543C8.68084 0.614393 8.15557 0.555879 7.63518 0.60675C5.70754 0.787733 4.25003 2.6248 4.25003 4.46667V4.65384C3.2842 4.79128 2.54852 5.13374 2.05774 5.71723C1.40446 6.4939 1.35808 7.49705 1.45458 8.36916L1.45451 8.36916L1.45582 8.37969L1.95502 12.3733C2.03061 13.0733 2.21216 13.8996 2.89167 14.5204C3.56656 15.137 4.58318 15.4167 6.00003 15.4167H10C11.4169 15.4167 12.4335 15.137 13.1084 14.5204C13.7879 13.8996 13.9695 13.0733 14.045 12.3733L14.5442 8.37969L14.5443 8.3797L14.5455 8.36916C14.642 7.49705 14.5956 6.4939 13.9423 5.71723ZM3.44424 12.1936L2.94492 8.19907C2.86242 7.44748 2.95949 6.97544 3.20566 6.68277C3.44525 6.39793 3.99807 6.08333 5.33336 6.08333H10.6667C12.002 6.08333 12.5548 6.39793 12.7944 6.68277C13.0406 6.97544 13.1376 7.44748 13.0551 8.19907L12.5558 12.1936L12.5557 12.1936L12.5543 12.2068C12.4895 12.812 12.36 13.1724 12.0967 13.413C11.8266 13.6597 11.2632 13.9167 10 13.9167H6.00003C4.73688 13.9167 4.1735 13.6597 3.90339 13.413C3.64008 13.1724 3.51061 12.812 3.44576 12.2068L3.44588 12.2068L3.44424 12.1936ZM5.66425 7.00003C5.11196 7.00003 4.66425 7.44775 4.66425 8.00003C4.66425 8.55232 5.11196 9.00003 5.66425 9.00003H5.66958C6.22186 9.00003 6.66958 8.55232 6.66958 8.00003C6.66958 7.44775 6.22186 7.00003 5.66958 7.00003H5.66425ZM10.3309 7.00003C9.77863 7.00003 9.33091 7.44775 9.33091 8.00003C9.33091 8.55232 9.77863 9.00003 10.3309 9.00003H10.3376C10.8899 9.00003 11.3376 8.55232 11.3376 8.00003C11.3376 7.44775 10.8899 7.00003 10.3376 7.00003H10.3309Z" fill="#707070"/>
</svg>
