<svg width="40" height="41" viewBox="0 0 40 41" fill="none" xmlns="http://www.w3.org/2000/svg">
<rect y="0.5" width="40" height="40" rx="20" fill="#F5F6FA"/>
<path d="M25.2667 20C27.4333 20 28.3333 19.1667 27.5333 16.4333C26.9917 14.5917 25.4083 13.0083 23.5667 12.4667C20.8333 11.6667 20 12.5667 20 14.7333V17.1333C20 19.1667 20.8333 20 22.5 20H25.2667Z" stroke="#8E0091" stroke-width="1.5" stroke-linecap="round" stroke-linejoin="round"/>
<path d="M26.6667 22.25C26.2782 24.1784 25.155 25.8801 23.5344 26.9952C21.9139 28.1103 19.9232 28.5513 17.9833 28.225C14.825 27.7167 12.2833 25.175 11.7667 22.0167C11.444 20.0819 11.8835 18.0974 12.9929 16.4798C14.1024 14.8622 15.7955 13.7374 17.7167 13.3417" stroke="#8E0091" stroke-width="1.5" stroke-linecap="round" stroke-linejoin="round"/>
</svg>
